inDegrees=no
num_controls=7
num_derivatives=13
num_iterations=95
num_multipliers=7
num_parameters=0
num_slacks=7
num_states=26
objective=4.882710
objective_accelerations=0.698002
objective_balance=0.024988
objective_effort=0.674816
objective_height=3.430751
objective_ligament=0.054155
solver_duration=1001.175096
status=Solve_Succeeded
success=true
DataType=double
version=3
OpenSimVersion=4.4-2022-07-23-0e9fedc
endheader
time	/jointset/ground_pelvis/pelvis_tilt/value	/jointset/ground_pelvis/pelvis_tx/value	/jointset/ground_pelvis/pelvis_ty/value	/jointset/hip_l/hip_flexion_l/value	/jointset/hip_l/hip_adduction_l/value	/jointset/hip_l/hip_rotation_l/value	/jointset/back/lumbar_extension/value	/jointset/patellofemoral_l/patellar_flexion_l/value	/jointset/knee_l/knee_flexion_l/value	/jointset/knee_l/knee_adduction_l/value	/jointset/knee_l/knee_rotation_l/value	/jointset/ankle_l/ankle_angle_l/value	/jointset/subtalar_l/subtalar_angle_l/value	/jointset/ground_pelvis/pelvis_tilt/speed	/jointset/ground_pelvis/pelvis_tx/speed	/jointset/ground_pelvis/pelvis_ty/speed	/jointset/hip_l/hip_flexion_l/speed	/jointset/hip_l/hip_adduction_l/speed	/jointset/hip_l/hip_rotation_l/speed	/jointset/back/lumbar_extension/speed	/jointset/patellofemoral_l/patellar_flexion_l/speed	/jointset/knee_l/knee_flexion_l/speed	/jointset/knee_l/knee_adduction_l/speed	/jointset/knee_l/knee_rotation_l/speed	/jointset/ankle_l/ankle_angle_l/speed	/jointset/subtalar_l/subtalar_angle_l/speed	/forceset/tau_hip_flexion_l	/forceset/tau_hip_adduction_l	/forceset/tau_hip_rotation_l	/forceset/tau_knee_flexion_l	/forceset/tau_ankle_angle_l	/forceset/tau_subtalar_angle_l	/forceset/tau_lumbar_extension	lambda_cid13_p0	lambda_cid13_p1	lambda_cid13_p2	lambda_cid13_p3	lambda_cid13_p4	lambda_cid13_p5	lambda_cid14_p0	/jointset/ground_pelvis/pelvis_tilt/accel	/jointset/ground_pelvis/pelvis_tx/accel	/jointset/ground_pelvis/pelvis_ty/accel	/jointset/hip_l/hip_flexion_l/accel	/jointset/hip_l/hip_adduction_l/accel	/jointset/hip_l/hip_rotation_l/accel	/jointset/back/lumbar_extension/accel	/jointset/patellofemoral_l/patellar_flexion_l/accel	/jointset/knee_l/knee_flexion_l/accel	/jointset/knee_l/knee_adduction_l/accel	/jointset/knee_l/knee_rotation_l/accel	/jointset/ankle_l/ankle_angle_l/accel	/jointset/subtalar_l/subtalar_angle_l/accel	gamma_cid13_p0	gamma_cid13_p1	gamma_cid13_p2	gamma_cid13_p3	gamma_cid13_p4	gamma_cid13_p5	gamma_cid14_p0
1.5	-0.05324807926532128	-0.06700676014377055	0.739432522281788	1.12684069738121	-0.3068171242679775	-0.07387772596083159	-0.8572081681015321	1.202586110284217	1.202586110284084	0.03232026321440909	-0.1745289376072202	0.2235017068911697	0.07059516973117672	0.3641850972400679	0.2345626389518072	0.9137548083437561	-3.092815470719977	0.0365841869669575	-0.6292509909657562	0.7445017510744538	-3.028211818331525	-3.028211818331614	-0.4915803438259042	-0.0003253543043252611	-0.4868477559114744	-0.155535116609743	-0.2715055747093999	0.01058745875325017	-0.01855436912553542	-0.3141489345173676	0.1230085783145291	0.04670987649975342	0.3424824782100445	-1.58995768913976	-17.43492553747921	-0.6134412149034425	-23.34980591082322	-671.4101040865967	-68.83318150779269	-0.9146851320223767	1.304957799463877	1.421255310581039	-0.9048187655438368	-1.824841767237263	0.3338482277556816	-0.739211005150355	3.089627896083476	-2.267160939676206	-2.267160939676216	-0.4019559824515325	0.09765206519638953	-1.922421173550909	-0.2998929269376858	4.899926086755347e-07	3.584258778195169e-06	-8.061855320561137e-07	5.274970514036109e-07	6.253030355127729e-07	1.593943416407265e-08	6.566171120584895e-07
1.51	-0.04954184386898	-0.06459008613161017	0.7485226014141336	1.095824131377815	-0.3064366380530977	-0.08020873947453921	-0.8496094239183136	1.172194064043661	1.172194064043284	0.02738279252959067	-0.1745312897225088	0.2185381878018407	0.06902286395790508	0.3769349082449446	0.2487650834370863	0.9040334198932772	-3.110132999693268	0.03952453369970756	-0.6369305951662435	0.7752138590645933	-3.04980105159467	-3.049801051594665	-0.4958879752090176	-0.0001061697507985736	-0.5056785530201329	-0.1588223238574326	-0.261860914528018	0.01098650285974469	-0.0177951385858284	-0.3055209042650331	0.1218520153813278	0.04672013421181321	0.3325307936442646	-1.333025697505872	-17.6922182720796	-0.3350059026830388	-23.39221335724433	-661.2915812177614	-68.69802087906307	-1.45049607307888	1.240990727747564	1.418779582492535	-1.039795858097867	-1.630437937771479	0.2756355038157612	-0.7784243106056478	3.057018274257882	-2.045491742827172	-2.045491742812856	-0.4405562570574704	-0.01029012666804898	-1.836582700452557	-0.328103884656637	5.437081067020159e-07	3.86952122175359e-06	-9.276610105869847e-07	5.17829433712914e-07	6.83714478574876e-07	1.423132898758914e-07	6.982867053638174e-07
1.52	-0.04571191076727481	-0.06203157956159945	0.7575086672673134	1.064645344189605	-0.3060264468493374	-0.0866157668668199	-0.8417045554504391	1.14159798802583	1.141597988025223	0.02240316762272739	-0.1745303183483006	0.2133917259972422	0.06742069225996197	0.3889246383198149	0.2629291505218794	0.8929521525107845	-3.1252597076824	0.04252518474365421	-0.6444537666910392	0.8057266080059186	-3.069017773785556	-3.069017773785456	-0.500011188224786	0.0003393437187542974	-0.5234362989659573	-0.1615083015440158	-0.25221625434651	0.0113855469663796	-0.01703590804621278	-0.296892874012695	0.1206954524481452	0.04673039192405708	0.3225791090785743	-1.075292220303749	-17.96464873233122	-0.03702682759386276	-23.50852554029974	-651.1770884577276	-68.66235034692494	-2.103342712850165	1.152941613461505	1.413579830484426	-1.176794551946412	-1.386677570405637	0.3459090899951379	-0.7079244700118258	3.049756086320162	-1.792658725224569	-1.792658725224639	-0.3650723089826086	0.1429178484019028	-1.70781094098325	-0.1796470147159492	5.951820259005615e-07	4.193271697833961e-06	-1.006238707518631e-06	5.131590487617409e-07	7.489367362936106e-07	2.986098372805501e-07	7.38667459682001e-07
1.53	-0.0417658486321314	-0.05933174565613545	0.7663772480280138	1.033326102647923	-0.3055858826855334	-0.09309734168460862	-0.8334960364788254	1.110821710965751	1.110821710965605	0.01738322626575165	-0.174523702825208	0.2080732409047726	0.06579481446006269	0.4001506370095461	0.2770172982739172	0.8805446897394801	-3.138200053143374	0.04561927867279068	-0.6518004826838891	0.8359114417842708	-3.085809898656496	-3.085809898656381	-0.5039437773096686	0.001071729363763215	-0.540057915880107	-0.1635338949085833	-0.2422815279801736	0.01153884807610198	-0.01631694706065078	-0.28855546542729	0.1195797827396861	0.04644746900924566	0.3122857016273142	-0.8336329718114346	-18.09764289445353	0.2281071452560181	-23.44108183094538	-641.1395208046619	-68.41654572929275	-2.86897906401842	1.086912251684194	1.403485233030332	-1.305446585502971	-1.189370683430553	0.2956119711687351	-0.7381139704217129	2.992985343148279	-1.558488145636247	-1.558488145633726	-0.4015113730721417	0.0514069663014423	-1.60868190751841	-0.1946476709508153	6.442742675944253e-07	4.557915708468904e-06	-1.039237511501103e-06	5.137982235963115e-07	8.21395484585016e-07	4.866992446088511e-07	7.776788225763438e-07
1.54	-0.03771162985913389	-0.05649161967605825	0.7751152092718433	1.001889126121707	-0.3051134870970766	-0.09965039742372089	-0.8249876415055186	1.0798903129015	1.079890312901704	0.01232512718473368	-0.1745071618369993	0.2025946706749707	0.06415255429179267	0.4105559658975783	0.2909875654445189	0.8668282491368117	-3.148806704583824	0.04889146967384243	-0.6587499509367571	0.8657018083448861	-3.100041974631734	-3.100041974631602	-0.5076427329878321	0.002324436758751416	-0.5554533264297594	-0.1647847752181347	-0.2323468016138863	0.01169214918548711	-0.0155979860765546	-0.2802180568419888	0.1184641130311463	0.04616454609400687	0.3019922941760602	-0.5869204920945741	-18.24712677362258	0.5136943760494563	-23.45837436668064	-631.049078412227	-68.27278923894005	-3.744516076848433	0.9888076531202864	1.390003714197889	-1.438590118219061	-0.9199387663016135	0.3815285043778137	-0.6284749220159951	2.970862642772219	-1.280648946083968	-1.280648946083959	-0.3183456276391703	0.2469821983969419	-1.462569668082929	-0.02470440371288876	6.886593816815712e-07	4.97894408176263e-06	-1.013204645244886e-06	5.261725744215289e-07	8.973658482118414e-07	7.036547027895632e-07	8.162499931788445e-07
1.55	-0.0335574233609414	-0.05351252312085471	0.7837096321060655	0.9703575770226306	-0.3046076604612801	-0.1062716915121944	-0.8161838986235869	1.048829358496648	1.048829358496871	0.007231361055995505	-0.1744761833896401	0.1969683135817141	0.062501430160545	0.4201363012459817	0.304795621946708	0.8518489578100549	-3.157088799114023	0.05230207337763683	-0.6654395412203966	0.894940728265271	-3.111698361677817	-3.111698361677799	-0.5110768355450276	0.003953150831642598	-0.5696039484647022	-0.1653129365497793	-0.2220954503973222	0.01148550888645735	-0.01492784452042569	-0.2724594402064243	0.1175470474017031	0.04558434286512111	0.2913658309919927	-0.3204447751790063	-18.26074648927527	0.7659527600868538	-23.27842285767203	-621.2441316816335	-67.96559667664651	-4.728712262887316	0.9203397273130725	1.370901363798006	-1.55849825699717	-0.720143602816162	0.3246233096874815	-0.6779071496267866	2.8845006996377	-1.04072697792296	-1.040726977939818	-0.3499034424856774	0.1329528235834011	-1.35890875400155	-0.04862098353463918	7.276210661348898e-07	5.464937046815384e-06	-9.191570284962717e-07	5.520678888881428e-07	9.773822034207813e-07	9.538688717350081e-07	8.54313985705962e-07
